<svg xmlns="http://www.w3.org/2000/svg" width="960" height="560" viewBox="0 0 960 560">
<rect width="100%" height="100%" fill="white"/>
<text x="480" y="28" text-anchor="middle" font-family="Arial" font-size="20">PR28 synthetic controlled Pareto view</text>
<line x1="90" y1="480" x2="930" y2="480" stroke="#111"/>
<line x1="90" y1="50" x2="90" y2="480" stroke="#111"/>
<text x="480.0" y="536" text-anchor="middle" font-family="Arial" font-size="14">Latency p95 ms lower is better</text>
<text x="20" y="280.0" transform="rotate(-90 20 280.0)" text-anchor="middle" font-family="Arial" font-size="14">Balanced accuracy higher is better</text>
<line x1="90.0" y1="480" x2="90.0" y2="486" stroke="#111"/>
<text x="90.0" y="502" text-anchor="middle" font-family="Arial" font-size="11">31</text>
<line x1="258.0" y1="480" x2="258.0" y2="486" stroke="#111"/>
<text x="258.0" y="502" text-anchor="middle" font-family="Arial" font-size="11">80</text>
<line x1="426.0" y1="480" x2="426.0" y2="486" stroke="#111"/>
<text x="426.0" y="502" text-anchor="middle" font-family="Arial" font-size="11">130</text>
<line x1="594.0" y1="480" x2="594.0" y2="486" stroke="#111"/>
<text x="594.0" y="502" text-anchor="middle" font-family="Arial" font-size="11">179</text>
<line x1="762.0" y1="480" x2="762.0" y2="486" stroke="#111"/>
<text x="762.0" y="502" text-anchor="middle" font-family="Arial" font-size="11">228</text>
<line x1="930.0" y1="480" x2="930.0" y2="486" stroke="#111"/>
<text x="930.0" y="502" text-anchor="middle" font-family="Arial" font-size="11">278</text>
<line x1="84" y1="480.0" x2="90" y2="480.0" stroke="#111"/>
<text x="80" y="484.0" text-anchor="end" font-family="Arial" font-size="11">0.70</text>
<line x1="84" y1="394.0" x2="90" y2="394.0" stroke="#111"/>
<text x="80" y="398.0" text-anchor="end" font-family="Arial" font-size="11">0.73</text>
<line x1="84" y1="308.0" x2="90" y2="308.0" stroke="#111"/>
<text x="80" y="312.0" text-anchor="end" font-family="Arial" font-size="11">0.76</text>
<line x1="84" y1="222.0" x2="90" y2="222.0" stroke="#111"/>
<text x="80" y="226.0" text-anchor="end" font-family="Arial" font-size="11">0.79</text>
<line x1="84" y1="136.0" x2="90" y2="136.0" stroke="#111"/>
<text x="80" y="140.0" text-anchor="end" font-family="Arial" font-size="11">0.82</text>
<line x1="84" y1="50.0" x2="90" y2="50.0" stroke="#111"/>
<text x="80" y="54.0" text-anchor="end" font-family="Arial" font-size="11">0.86</text>
<circle cx="190.1" cy="172.1" r="8" fill="#16a34a" stroke="#111827" stroke-width="2"><title>capable__balanced__nominal__local_device</title></circle>
<circle cx="317.5" cy="104.5" r="8" fill="#dc2626" stroke="#111827" stroke-width="2"><title>capable__high__nominal__local_device</title></circle>
<circle cx="101.7" cy="369.8" r="8" fill="#2563eb" stroke="#111827" stroke-width="2"><title>capable__low__nominal__local_device</title></circle>
<circle cx="519.3" cy="219.1" r="8" fill="#16a34a" stroke="#111827" stroke-width="2"><title>constrained__balanced__nominal__local_device</title></circle>
<circle cx="885.0" cy="372.1" r="5" fill="#dc2626" stroke="none" stroke-width="2"><title>constrained__high__nominal__local_device</title></circle>
<circle cx="304.3" cy="425.5" r="8" fill="#2563eb" stroke="#111827" stroke-width="2"><title>constrained__low__nominal__local_device</title></circle>
<circle cx="298.9" cy="172.3" r="8" fill="#16a34a" stroke="#111827" stroke-width="2"><title>standard__balanced__nominal__local_device</title></circle>
<circle cx="491.0" cy="105.9" r="8" fill="#dc2626" stroke="#111827" stroke-width="2"><title>standard__high__nominal__local_device</title></circle>
<circle cx="164.5" cy="356.0" r="8" fill="#2563eb" stroke="#111827" stroke-width="2"><title>standard__low__nominal__local_device</title></circle>
<text x="720" y="70" font-family="Arial" font-size="12">Outlined points are non-dominated</text>
<text x="720" y="88" font-family="Arial" font-size="12">Synthetic engineering evidence only</text>
</svg>
